<svg width="272" height="124" viewBox="0 0 272 124" fill="none" xmlns="http://www.w3.org/2000/svg">
<path fill-rule="evenodd" clip-rule="evenodd" d="M24.97 100.5H32.78L32.65 102.08H27.33L26.86 106.77H31.77L31.13 108.35H26.71C26.56 109.99 26.36 111.64 26.22 113.28L26.31 114.92H23.89L25.12 102.52L24.98 100.5H24.97Z" fill="#58595B"/>
<path fill-rule="evenodd" clip-rule="evenodd" d="M35.45 110.33L35.47 110.55C35.65 112.13 36.61 113.51 38.62 113.51C40.63 113.51 42.05 111.84 42.05 111.84L42.27 113.75C42.27 113.75 41.21 115.2 38.31 115.2C35.41 115.2 33.64 113.1 33.37 110.69C32.96 107.12 34.97 103.81 38.59 103.81C40.72 103.81 41.85 104.84 42.01 106.2C42.34 109.09 38.91 110.34 35.46 110.34M35.46 109.07C36.06 109.05 40.11 108.76 39.84 106.42C39.78 105.92 39.49 105.24 38.45 105.24C36.59 105.24 35.62 107.13 35.46 109.07Z" fill="#58595B"/>
<path fill-rule="evenodd" clip-rule="evenodd" d="M45.64 110.33L45.67 110.55C45.85 112.13 46.81 113.51 48.81 113.51C50.81 113.51 52.24 111.84 52.24 111.84L52.46 113.75C52.46 113.75 51.39 115.2 48.5 115.2C45.61 115.2 43.83 113.1 43.56 110.69C43.15 107.12 45.16 103.81 48.78 103.81C50.91 103.81 52.04 104.84 52.2 106.2C52.53 109.09 49.1 110.34 45.65 110.34M45.65 109.07C46.25 109.05 50.3 108.76 50.03 106.42C49.97 105.92 49.68 105.24 48.64 105.24C46.78 105.24 45.81 107.13 45.65 109.07Z" fill="#58595B"/>
<path fill-rule="evenodd" clip-rule="evenodd" d="M56.23 113.27L56.3 114.91H54.06L55.48 100.63L55.36 98.61L57.73 98.37L56.23 113.27Z" fill="#58595B"/>
<path fill-rule="evenodd" clip-rule="evenodd" d="M72.67 106.85C73.95 107.31 75.07 108.4 75.25 109.98C75.59 112.91 73.31 114.91 68.91 114.91H65.5L66.73 102.51L66.59 100.5L70.3 100.37C73.31 100.26 74.71 101.71 74.9 103.35C75.11 105.12 73.63 106.33 72.67 106.86M67.84 113.35H69.36C72.16 113.35 73.17 111.79 72.97 110.06C72.83 108.83 71.85 107.94 69.51 107.94H68.37L67.83 113.35H67.84ZM69.71 106.34C70.68 106.34 71.57 106.52 71.57 106.52C72.28 105.8 72.91 104.55 72.81 103.63C72.71 102.78 71.95 101.86 70.2 101.94L68.98 102.01L68.54 106.35H69.72L69.71 106.34Z" fill="#58595B"/>
<path fill-rule="evenodd" clip-rule="evenodd" d="M79.11 110.33L79.13 110.55C79.31 112.13 80.27 113.51 82.28 113.51C84.29 113.51 85.71 111.84 85.71 111.84L85.93 113.75C85.93 113.75 84.86 115.2 81.96 115.2C79.06 115.2 77.3 113.1 77.02 110.69C76.61 107.12 78.62 103.81 82.24 103.81C84.37 103.81 85.5 104.84 85.66 106.2C85.99 109.09 82.56 110.34 79.11 110.34M79.11 109.07C79.71 109.05 83.76 108.76 83.49 106.42C83.43 105.92 83.14 105.24 82.1 105.24C80.24 105.24 79.27 107.13 79.11 109.07Z" fill="#58595B"/>
<path fill-rule="evenodd" clip-rule="evenodd" d="M90.77 104.13H94.47L93.58 105.62H90.61C89.97 112.22 89.99 112.37 90 112.5C90.08 113.18 90.54 113.44 91.17 113.44C92.06 113.44 93.19 112.76 93.88 112.21L94.09 114.07C92.99 114.81 91.88 115.19 90.76 115.19C89.43 115.19 88.15 114.51 87.95 112.82C87.91 112.53 87.93 112.21 88.57 105.61H87.12L87.29 104.12H88.74C88.79 103.46 88.88 102.81 88.92 102.15L91.21 101.91L90.76 104.12L90.77 104.13Z" fill="#58595B"/>
<path fill-rule="evenodd" clip-rule="evenodd" d="M99.21 104.13H102.91L102.02 105.62H99.05C98.41 112.22 98.43 112.37 98.44 112.5C98.52 113.18 98.98 113.44 99.61 113.44C100.5 113.44 101.63 112.76 102.32 112.21L102.54 114.07C101.44 114.81 100.32 115.19 99.21 115.19C97.88 115.19 96.59 114.51 96.4 112.82C96.37 112.53 96.38 112.21 97.02 105.61H95.57L95.74 104.12H97.19C97.24 103.46 97.33 102.81 97.37 102.15L99.66 101.91L99.22 104.12L99.21 104.13Z" fill="#58595B"/>
<path fill-rule="evenodd" clip-rule="evenodd" d="M105.72 110.33L105.74 110.55C105.92 112.13 106.88 113.51 108.89 113.51C110.9 113.51 112.32 111.84 112.32 111.84L112.54 113.75C112.54 113.75 111.47 115.2 108.58 115.2C105.69 115.2 103.91 113.1 103.64 110.69C103.23 107.12 105.24 103.81 108.86 103.81C110.99 103.81 112.12 104.84 112.28 106.2C112.61 109.09 109.18 110.34 105.73 110.34M105.73 109.07C106.33 109.05 110.38 108.76 110.11 106.42C110.05 105.92 109.76 105.24 108.72 105.24C106.86 105.24 105.89 107.13 105.73 109.07Z" fill="#58595B"/>
<path fill-rule="evenodd" clip-rule="evenodd" d="M121.48 106C121.48 106 120.55 105.74 120.07 105.74C118.43 105.74 116.88 108.65 116.72 110.23L116.42 113.28L116.49 114.92H114.22L115.09 106.15L114.71 104.33L117.05 103.89L116.88 106.61C117.24 105.97 118.34 103.81 120.5 103.81C121.27 103.81 122.26 104.2 122.26 104.2L121.48 106Z" fill="#58595B"/>
<path fill-rule="evenodd" clip-rule="evenodd" d="M122.37 115.2C121.55 115.2 120.8 114.59 120.71 113.82C120.63 113.1 121.23 112.48 122.06 112.48C122.89 112.48 123.63 113.09 123.71 113.82C123.8 114.59 123.19 115.2 122.37 115.2Z" fill="#58595B"/>
<path fill-rule="evenodd" clip-rule="evenodd" d="M135.51 106.3L134.86 104.86L134.02 113.27L134.11 114.91H131.89L133.11 102.51L132.98 100.49H134.4L140.48 109.83L147.64 100.49H149.29L148.03 113.27L148.12 114.91H145.71L146.71 104.77L145.71 106.3L140.2 113.29L135.51 106.3Z" fill="#58595B"/>
<path fill-rule="evenodd" clip-rule="evenodd" d="M155.52 115.2C152.4 115.2 151.31 112.62 151.12 110.97C150.64 106.83 152.66 103.81 156.7 103.81C158.83 103.81 160.75 105.39 161.06 108.08C161.49 111.81 159.71 115.2 155.53 115.2M158.97 108.39C158.78 106.7 157.69 105.26 156.26 105.26C154.16 105.26 152.92 108.17 153.2 110.58C153.41 112.38 154.27 113.74 155.84 113.74C157.41 113.74 159.38 111.94 158.97 108.39Z" fill="#58595B"/>
<path fill-rule="evenodd" clip-rule="evenodd" d="M170.15 106C170.15 106 169.23 105.74 168.74 105.74C167.1 105.74 165.55 108.65 165.39 110.23L165.09 113.28L165.16 114.92H162.89L163.76 106.15L163.38 104.33L165.72 103.89L165.55 106.61C165.91 105.97 167.01 103.81 169.16 103.81C169.93 103.81 170.92 104.2 170.92 104.2L170.14 106H170.15Z" fill="#58595B"/>
<path fill-rule="evenodd" clip-rule="evenodd" d="M173.05 110.33L173.07 110.55C173.25 112.13 174.21 113.51 176.21 113.51C178.21 113.51 179.64 111.84 179.64 111.84L179.86 113.75C179.86 113.75 178.79 115.2 175.9 115.2C173.01 115.2 171.23 113.1 170.96 110.69C170.55 107.12 172.56 103.81 176.18 103.81C178.31 103.81 179.44 104.84 179.6 106.2C179.94 109.09 176.5 110.34 173.05 110.34M173.05 109.07C173.65 109.05 177.7 108.76 177.43 106.42C177.37 105.92 177.08 105.24 176.04 105.24C174.18 105.24 173.21 107.13 173.05 109.07Z" fill="#58595B"/>
<path fill-rule="evenodd" clip-rule="evenodd" d="M193.97 100.23C198.29 100.23 200.02 103.67 200.27 105.84C200.9 111.27 197.87 115.19 193.06 115.19C189.41 115.19 187.2 112.58 186.86 109.58C186.29 104.65 188.8 100.22 193.97 100.22M189.07 109.31C189.36 111.81 191.02 113.63 193.19 113.63C196.5 113.63 198.45 109.6 198.07 106.25C197.78 103.77 196.25 101.83 193.91 101.83C191.57 101.83 188.51 104.41 189.07 109.32" fill="#58595B"/>
<path fill-rule="evenodd" clip-rule="evenodd" d="M204.68 115.15C204.54 118.13 202.99 120.19 200.29 120.21L199.56 118.7C201.45 118.7 202.53 117.43 202.65 115.15L203.12 105.62H201.6L201.69 104.13H203.19L203.27 102.53C203.43 99.33 205.21 98.39 207.07 98.39C207.99 98.39 208.96 98.67 209.79 99.13L208.88 100.64C208.35 100.27 207.78 100.11 207.2 100.11C206.26 100.11 205.39 100.79 205.33 102.13L205.22 104.12H208.6L207.78 105.61H205.15L204.68 115.14V115.15Z" fill="#58595B"/>
<path fill-rule="evenodd" clip-rule="evenodd" d="M212.82 104.13H216.52L215.63 105.62H212.66C212.02 112.22 212.04 112.37 212.05 112.5C212.13 113.18 212.59 113.44 213.22 113.44C214.12 113.44 215.25 112.76 215.93 112.21L216.14 114.07C215.04 114.81 213.93 115.19 212.81 115.19C211.48 115.19 210.19 114.51 210 112.82C209.97 112.53 209.98 112.21 210.62 105.61H209.17L209.34 104.12H210.79C210.84 103.46 210.93 102.81 210.97 102.15L213.26 101.91L212.82 104.12V104.13Z" fill="#58595B"/>
<path fill-rule="evenodd" clip-rule="evenodd" d="M219.33 110.33L219.35 110.55C219.53 112.13 220.49 113.51 222.5 113.51C224.51 113.51 225.93 111.84 225.93 111.84L226.15 113.75C226.15 113.75 225.08 115.2 222.18 115.2C219.28 115.2 217.52 113.1 217.24 110.69C216.83 107.12 218.84 103.81 222.46 103.81C224.59 103.81 225.72 104.84 225.88 106.2C226.21 109.09 222.78 110.34 219.32 110.34M219.32 109.07C219.92 109.05 223.97 108.76 223.7 106.42C223.64 105.92 223.35 105.24 222.31 105.24C220.45 105.24 219.48 107.13 219.32 109.07Z" fill="#58595B"/>
<path fill-rule="evenodd" clip-rule="evenodd" d="M234.75 114.91L235.4 107.79C235.47 107.13 235.59 105.62 234.35 105.62C232.68 105.62 230.55 107.66 230.55 107.66L230.01 113.27L230.05 114.91H227.83L228.7 106.15L228.32 104.35L230.66 103.89L230.54 106.01C230.54 106.01 232.73 103.82 234.93 103.82C237.13 103.82 237.64 105.33 237.53 107.06L236.92 113.3L236.98 114.9H234.73L234.75 114.91Z" fill="#58595B"/>
<path fill-rule="evenodd" clip-rule="evenodd" d="M241.31 115.2C240.49 115.2 239.74 114.59 239.65 113.82C239.57 113.1 240.17 112.48 240.99 112.48C241.81 112.48 242.56 113.09 242.64 113.82C242.73 114.59 242.12 115.2 241.3 115.2" fill="#58595B"/>
<path d="M59 80.31C55.33 75 51.49 68.77 43.14 71.06C42.99 71.1 42.96 71.3 42.98 71.45C43 71.6 43.1 71.75 43.25 71.82C43.68 72.03 44.14 72.38 44.61 72.79C49.37 76.96 56.43 89.4 57.21 90.46C58 91.54 59.22 92.67 60.53 91.92C61.96 91.11 62.47 89.14 63.2 87.76C65.98 82.53 69.2 77.57 72.84 72.94C85.22 57.2 97.14 49.01 109.31 43.64C110.03 43.32 110.73 42.97 111.46 42.69C111.98 42.49 112.21 41.82 112 41.21C111.79 40.6 111.21 40.22 110.67 40.37C95.37 44.34 76.02 53.77 59 80.3" fill="#58595B"/>
<path fill-rule="evenodd" clip-rule="evenodd" d="M4.17999 2.89C4.24999 2.17 4.84999 1.62 5.57999 1.62H19.61C20.31 1.62 20.94 2.03 21.22 2.67L30.74 24.11L44.46 2.44C44.78 1.93 45.35 1.62 45.95 1.62H59.5C60 1.62 60.47 1.83 60.8 2.2C61.13 2.57 61.3 3.06 61.25 3.55L58.27 34.96C58.19 35.87 57.42 36.56 56.51 36.56H49.63C49.13 36.56 48.66 36.35 48.33 35.98C48 35.61 47.83 35.12 47.88 34.63L50.08 11.47H50.02C50.02 11.47 49.98 11.47 49.97 11.5L34.09 35.77C33.77 36.27 33.21 36.57 32.62 36.57H26.69C26 36.57 25.38 36.17 25.09 35.55L13.89 11.46H13.85C13.85 11.46 13.79 11.48 13.79 11.52L11.57 34.96C11.48 35.87 10.72 36.56 9.80999 36.56H2.91999C2.41999 36.56 1.94999 36.35 1.61999 35.98C1.28999 35.61 1.11999 35.12 1.16999 34.63L4.17999 2.89Z" fill="#58595B"/>
<path fill-rule="evenodd" clip-rule="evenodd" d="M61.31 27.92C61.95 21.21 66.62 20.83 75.59 20.83C80.66 20.83 83.44 20.97 85.05 22.81L85.26 20.64C85.49 18.23 84.85 17.36 81.23 17.36H75.78C73.39 17.36 72.49 17.55 72.13 18.8C72.04 19.12 71.75 19.34 71.41 19.34H64.63C64.22 19.34 63.83 19.16 63.56 18.83C63.3 18.51 63.19 18.09 63.27 17.68C64.3 12.48 67.75 11.56 74.87 11.56H85.63C92 11.56 95.09 14.6 94.54 20.39L93.13 35.28C93.06 36.01 92.45 36.56 91.73 36.56H85.78C85.38 36.56 85 36.39 84.74 36.1C84.47 35.81 84.34 35.41 84.38 35.02L84.5 33.76C81.69 36.42 80.67 36.95 76.04 36.95H69.72C64.07 37 60.57 35.74 61.12 29.95L61.31 27.92ZM77.51 31.15C83.88 31.15 84.55 30.18 84.71 28.54C84.88 26.71 84.42 26.03 79.3 26.03H75.2C71.29 26.03 70.39 26.9 70.19 28.93C70.04 30.52 71.23 31.15 74.85 31.15H77.5H77.51Z" fill="#58595B"/>
<path fill-rule="evenodd" clip-rule="evenodd" d="M104.69 28.88C105.06 28.88 105.38 29.15 105.43 29.52C105.57 30.51 106.58 31.15 110.96 31.15H114.24C118.63 31.15 119.77 30.81 119.92 29.32C120.06 27.87 119.39 27.29 116.11 27.29H107.42C98.78 27.24 96.4 25.36 97.05 18.61C97.63 12.48 102.64 11.56 109.01 11.56H115.48C126.54 11.56 129.14 12.97 129.16 17.62C129.16 18 129.01 18.36 128.75 18.62C128.49 18.88 128.13 19.03 127.75 19.03H120.38C120.08 19.03 119.81 18.85 119.7 18.58C119.25 17.53 118.02 17.34 113.1 17.34C107.74 17.34 106.72 17.49 106.56 19.17C106.46 20.23 107.14 20.62 111.97 20.62H118.39C129.49 20.62 129.96 24.34 129.54 28.73C128.92 35.25 126.16 36.93 115.59 36.93H106.81C98.97 36.93 95.84 35.26 95.83 30.29C95.83 29.92 95.98 29.56 96.24 29.29C96.5 29.02 96.86 28.87 97.24 28.87H104.72L104.69 28.88Z" fill="#58595B"/>
<path fill-rule="evenodd" clip-rule="evenodd" d="M139.97 28.88C140.34 28.88 140.66 29.15 140.71 29.52C140.85 30.51 141.86 31.15 146.24 31.15H149.52C153.91 31.15 155.05 30.81 155.2 29.32C155.34 27.87 154.67 27.29 151.39 27.29H142.7C134.06 27.24 131.69 25.36 132.33 18.61C132.91 12.48 137.92 11.56 144.29 11.56H150.76C161.82 11.56 164.42 12.97 164.44 17.62C164.44 18 164.29 18.36 164.03 18.62C163.76 18.89 163.41 19.03 163.03 19.03H155.66C155.36 19.03 155.09 18.85 154.98 18.58C154.53 17.53 153.3 17.34 148.38 17.34C143.02 17.34 142 17.49 141.84 19.17C141.74 20.23 142.42 20.62 147.25 20.62H153.67C164.77 20.62 165.24 24.34 164.82 28.73C164.2 35.25 161.44 36.93 150.87 36.93H142.09C134.25 36.93 131.12 35.26 131.1 30.29C131.1 29.92 131.25 29.56 131.51 29.29C131.77 29.02 132.13 28.87 132.51 28.87H139.99L139.97 28.88Z" fill="#58595B"/>
<path fill-rule="evenodd" clip-rule="evenodd" d="M165.89 27.92C166.53 21.21 171.2 20.83 180.17 20.83C185.24 20.83 188.02 20.97 189.63 22.81L189.84 20.64C190.07 18.23 189.43 17.36 185.81 17.36H180.35C177.96 17.36 177.06 17.55 176.71 18.8C176.62 19.12 176.33 19.34 175.99 19.34H169.24C168.82 19.34 168.42 19.15 168.15 18.82C167.88 18.49 167.78 18.06 167.86 17.65C168.9 12.49 172.35 11.57 179.45 11.57H190.21C196.58 11.57 199.67 14.61 199.12 20.4L197.71 35.29C197.64 36.02 197.03 36.57 196.31 36.57H190.36C189.96 36.57 189.58 36.4 189.32 36.11C189.05 35.82 188.92 35.42 188.96 35.03L189.08 33.77C186.27 36.43 185.25 36.96 180.62 36.96H174.3C168.65 37.01 165.15 35.75 165.7 29.96L165.89 27.93V27.92ZM182.09 31.15C188.46 31.15 189.13 30.18 189.29 28.54C189.46 26.71 189 26.03 183.88 26.03H179.78C175.87 26.03 174.97 26.9 174.78 28.93C174.63 30.52 175.82 31.15 179.44 31.15H182.09Z" fill="#58595B"/>
<path fill-rule="evenodd" clip-rule="evenodd" d="M201.47 21.21C202.19 13.59 206.29 11.56 213.68 11.56H219.08C223.76 11.56 224.82 12.14 226.83 15.32H226.93L227.13 13.21C227.2 12.49 227.8 11.94 228.53 11.94H234.4C234.79 11.94 235.17 12.11 235.44 12.4C235.71 12.69 235.84 13.08 235.8 13.48L233.72 35.89C233.23 41 231.12 46.02 219.49 46.02H209.26C204.01 46.02 200.31 44.76 200.18 39.79C200.17 39.41 200.31 39.05 200.58 38.78C200.84 38.51 201.21 38.36 201.58 38.36H209.1C209.44 38.36 209.74 38.59 209.82 38.93C210.02 39.75 210.87 40.25 211.87 40.25H218.58C222.63 40.25 224.78 38.08 225.17 33.93L225.32 32.29C223.31 34.12 221.7 34.85 216.78 34.85H211.9C202.92 34.85 200.51 31.28 201.14 24.62L201.46 21.24L201.47 21.21ZM219.97 28.16C224.56 28.16 225.73 26.95 226.08 23.24C226.44 19.48 225.49 18.22 220.91 18.22H216.37C211.79 18.22 210.61 19.47 210.25 23.24C209.9 26.96 210.85 28.16 215.43 28.16H219.97Z" fill="#58595B"/>
<path fill-rule="evenodd" clip-rule="evenodd" d="M237.21 22.9C238.09 13.59 242.92 11.56 249.67 11.56H256.14C265.98 11.56 269.84 13.64 269.03 22.18L268.76 25.06C268.69 25.78 268.09 26.33 267.36 26.33H246.15L246.01 27.82C245.76 30.43 247.53 31.15 251.39 31.15H254.24C258.73 31.15 259.5 30.07 259.71 28.81C259.75 28.54 259.98 28.35 260.25 28.35H267.38C267.65 28.35 267.91 28.47 268.1 28.67C268.28 28.87 268.37 29.14 268.35 29.41C267.77 35.59 262.14 36.94 255.43 36.94H248.48C242.35 36.94 235.99 35.78 236.99 25.26L237.22 22.9H237.21ZM259.71 20.83C259.98 20.83 260.21 20.61 260.22 20.34C260.3 17.83 258.85 17.36 253.76 17.36C247.73 17.36 246.95 17.89 246.67 20.83H259.7H259.71Z" fill="#58595B"/>
<path fill-rule="evenodd" clip-rule="evenodd" d="M266.15 4.63H66.11C65.46 4.63 64.94 4.11 64.94 3.46C64.94 2.81 65.47 2.29 66.11 2.29H266.14C266.79 2.29 267.31 2.81 267.31 3.46C267.31 4.11 266.79 4.63 266.14 4.63" fill="#58595B"/>
<path fill-rule="evenodd" clip-rule="evenodd" d="M39.53 72.3H30.73L31.26 66.7H55.78C56.65 66.7 57.38 66.04 57.46 65.17L57.83 61.3C57.87 60.83 57.72 60.36 57.4 60.01C57.08 59.66 56.63 59.46 56.15 59.46H31.95L32.48 53.86H58.45C59.32 53.86 60.05 53.2 60.13 52.33L60.58 47.6C60.62 47.13 60.47 46.66 60.15 46.31C59.83 45.96 59.38 45.76 58.9 45.76H24.06C23.19 45.76 22.46 46.42 22.38 47.29L19.39 78.86C19.35 79.33 19.5 79.8 19.82 80.15C20.14 80.5 20.59 80.7 21.07 80.7H47C43.65 76.03 41.12 73.21 39.53 72.3Z" fill="#58595B"/>
<path fill-rule="evenodd" clip-rule="evenodd" d="M51.67 87.56H19.65C19 87.56 18.48 88.08 18.48 88.73C18.48 89.38 19 89.9 19.65 89.9H53.17C52.65 89.09 52.15 88.31 51.66 87.56" fill="#58595B"/>
<path fill-rule="evenodd" clip-rule="evenodd" d="M125.22 67.04C126.1 57.73 130.93 55.7 137.68 55.7H144.15C154 55.7 157.85 57.78 157.04 66.32L156.65 70.47H134.16L134.02 71.96C133.77 74.57 135.54 75.29 139.4 75.29H142.25C146.41 75.29 147.37 74.36 147.66 73.22C147.77 72.79 148.16 72.49 148.6 72.49H155.39C155.66 72.49 155.92 72.61 156.11 72.81C156.29 73.01 156.38 73.28 156.36 73.55C155.77 79.73 150.15 81.08 143.44 81.08H136.49C130.36 81.08 124 79.92 125 69.4L125.22 67.04ZM148.2 64.96C148.48 62.02 147.18 61.49 141.77 61.49C135.74 61.49 134.96 62.02 134.69 64.96H148.2Z" fill="#58595B"/>
<path fill-rule="evenodd" clip-rule="evenodd" d="M160.2 57.37C160.27 56.64 160.88 56.09 161.61 56.09H167.45C167.85 56.09 168.23 56.26 168.5 56.55C168.77 56.84 168.9 57.24 168.86 57.64L168.56 60.77H168.66C170.09 56.86 173.97 55.7 178.16 55.7C184.92 55.7 187.3 58.59 186.65 65.4C186.62 65.7 186.58 66.02 186.53 66.36C186.43 67.06 185.83 67.57 185.13 67.57H179.8C179.04 67.57 178.41 66.96 178.4 66.19C178.36 63.99 177.46 62.93 174.33 62.93C171.2 62.93 168.81 64.14 168.53 67.08L167.36 79.41C167.29 80.14 166.68 80.69 165.95 80.69H159.53C159.13 80.69 158.75 80.52 158.48 80.23C158.21 79.94 158.08 79.54 158.12 79.14L160.18 57.36L160.2 57.37Z" fill="#58595B"/>
<path fill-rule="evenodd" clip-rule="evenodd" d="M191.66 62.75H189.39C189 62.75 188.62 62.58 188.35 62.29C188.09 62 187.96 61.61 187.99 61.21L188.36 57.35C188.43 56.63 189.03 56.08 189.75 56.08H192.28L192.64 52.65C192.71 51.94 193.31 51.4 194.03 51.4H200.48C200.88 51.4 201.25 51.57 201.52 51.86C201.79 52.15 201.91 52.55 201.87 52.94L201.54 56.08H214.38C214.77 56.08 215.15 56.25 215.42 56.54C215.69 56.83 215.81 57.22 215.78 57.61L215.41 61.47C215.34 62.19 214.74 62.74 214.02 62.74H200.91L200.01 72.2C199.84 74.03 201.15 74.42 203.37 74.42C206.36 74.42 207.25 73.74 207.46 71.48L207.5 71.11C207.57 70.39 208.17 69.84 208.89 69.84H214.19C214.58 69.84 214.96 70.01 215.23 70.3C215.49 70.59 215.63 70.98 215.59 71.37L215.45 72.83C215.01 77.51 211.58 81.08 204.19 81.08H200.52C194.83 81.08 190.07 79.29 190.72 72.49L191.64 62.74L191.66 62.75Z" fill="#58595B"/>
<path fill-rule="evenodd" clip-rule="evenodd" d="M225.7 73.03C226.05 73.03 226.35 73.29 226.4 73.64C226.53 74.65 227.51 75.29 231.93 75.29H235.21C239.6 75.29 240.74 74.95 240.89 73.46C241.03 72.01 240.36 71.43 237.08 71.43H228.4C219.76 71.38 217.39 69.5 218.03 62.74C218.61 56.61 223.62 55.7 229.99 55.7H236.46C247.54 55.7 250.13 57.11 250.14 61.79C250.14 62.16 249.99 62.51 249.74 62.77C249.48 63.03 249.13 63.18 248.76 63.18H241.34C241.06 63.18 240.8 63.01 240.69 62.75C240.24 61.68 239.03 61.49 234.08 61.49C228.72 61.49 227.7 61.64 227.54 63.32C227.44 64.38 228.13 64.77 232.95 64.77H239.37C250.47 64.77 250.94 68.49 250.52 72.88C249.9 79.4 247.14 81.09 236.57 81.09H227.79C219.94 81.09 216.81 79.42 216.81 74.43C216.81 74.06 216.96 73.7 217.22 73.44C217.48 73.18 217.84 73.03 218.21 73.03H225.74H225.7Z" fill="#58595B"/>
<path fill-rule="evenodd" clip-rule="evenodd" d="M72.38 59.3L71.1 57.22C70.67 56.52 69.9 56.09 69.08 56.09H59.71C59.46 56.09 59.23 56.23 59.11 56.46C59 56.69 59.02 56.96 59.17 57.16L65.7 66.08C67.86 63.69 70.09 61.43 72.38 59.3Z" fill="#58595B"/>
<path fill-rule="evenodd" clip-rule="evenodd" d="M77.91 66.88C76.22 68.77 74.53 70.78 72.83 72.94C72.45 73.43 72.09 73.94 71.71 74.43L74.65 79.51C75.07 80.24 75.86 80.69 76.7 80.69H86.09C86.42 80.69 86.72 80.51 86.87 80.21C87.02 79.92 86.99 79.56 86.8 79.3L77.9 66.87L77.91 66.88Z" fill="#58595B"/>
<path fill-rule="evenodd" clip-rule="evenodd" d="M247.13 87.56H97.26L98.31 76.45H98.41C100.11 80.36 101.88 81.08 107.14 81.08H109.02C120.75 81.08 122.59 76.88 123.19 70.61L123.61 66.17C124.21 59.9 123.16 55.7 111.43 55.7H108.78C103.38 55.7 101.07 57.58 99.71 59.75H99.61L99.81 57.62C99.85 57.23 99.72 56.84 99.45 56.54C99.18 56.25 98.8 56.08 98.41 56.08H92.26C91.53 56.08 90.93 56.63 90.86 57.35L87.99 87.55H63.31C63.27 87.62 63.23 87.69 63.19 87.76C62.85 88.4 62.56 89.17 62.19 89.9H247.13C247.78 89.9 248.3 89.38 248.3 88.73C248.3 88.08 247.78 87.56 247.13 87.56ZM98.96 69.6L99.19 67.19C99.54 63.47 101.55 62.65 105.22 62.65H110.1C114.54 62.65 114.83 64.19 114.57 66.94L114.3 69.83C114.04 72.58 113.45 74.13 109.02 74.13H104.15C100.48 74.13 98.63 73.31 98.98 69.59" fill="#58595B"/>
<path fill-rule="evenodd" clip-rule="evenodd" d="M24.74 100.26H32.55L32.42 101.84H27.1L26.63 106.53H31.54L30.9 108.11H26.48C26.33 109.75 26.13 111.4 25.99 113.04L26.08 114.68H23.66L24.89 102.28L24.75 100.26H24.74Z" fill="#0A6D80"/>
<path fill-rule="evenodd" clip-rule="evenodd" d="M35.22 110.1L35.24 110.32C35.42 111.9 36.38 113.28 38.39 113.28C40.4 113.28 41.82 111.61 41.82 111.61L42.04 113.52C42.04 113.52 40.97 114.97 38.08 114.97C35.19 114.97 33.41 112.87 33.14 110.46C32.73 106.89 34.74 103.58 38.36 103.58C40.49 103.58 41.62 104.61 41.78 105.97C42.11 108.86 38.68 110.11 35.23 110.11M35.23 108.84C35.83 108.82 39.88 108.53 39.61 106.19C39.55 105.69 39.26 105.01 38.22 105.01C36.36 105.01 35.39 106.9 35.23 108.84Z" fill="#0A6D80"/>
<path fill-rule="evenodd" clip-rule="evenodd" d="M45.41 110.1L45.44 110.32C45.62 111.9 46.58 113.28 48.58 113.28C50.58 113.28 52.01 111.61 52.01 111.61L52.23 113.52C52.23 113.52 51.16 114.97 48.27 114.97C45.38 114.97 43.6 112.87 43.33 110.46C42.92 106.89 44.93 103.58 48.55 103.58C50.68 103.58 51.81 104.61 51.97 105.97C52.3 108.86 48.87 110.11 45.42 110.11M45.42 108.84C46.02 108.82 50.07 108.53 49.8 106.19C49.74 105.69 49.45 105.01 48.41 105.01C46.55 105.01 45.58 106.9 45.42 108.84Z" fill="#0A6D80"/>
<path fill-rule="evenodd" clip-rule="evenodd" d="M56 113.03L56.07 114.68H53.82L55.24 100.39L55.13 98.37L57.49 98.13L56 113.03Z" fill="#0A6D80"/>
<path fill-rule="evenodd" clip-rule="evenodd" d="M72.44 106.61C73.72 107.07 74.84 108.17 75.03 109.74C75.37 112.67 73.08 114.67 68.69 114.67H65.28L66.51 102.27L66.37 100.25L70.08 100.12C73.09 100.01 74.49 101.46 74.68 103.1C74.89 104.88 73.41 106.08 72.45 106.61M67.62 113.1H69.14C71.94 113.1 72.95 111.54 72.75 109.81C72.61 108.58 71.63 107.69 69.29 107.69H68.15L67.61 113.1H67.62ZM69.49 106.09C70.46 106.09 71.35 106.27 71.35 106.27C72.06 105.55 72.69 104.3 72.59 103.38C72.49 102.53 71.73 101.61 69.98 101.69L68.76 101.76L68.32 106.1H69.5L69.49 106.09Z" fill="#0A6D80"/>
<path fill-rule="evenodd" clip-rule="evenodd" d="M78.88 110.1L78.9 110.32C79.08 111.9 80.04 113.28 82.05 113.28C84.06 113.28 85.48 111.61 85.48 111.61L85.7 113.52C85.7 113.52 84.63 114.97 81.73 114.97C78.83 114.97 77.07 112.87 76.79 110.46C76.38 106.89 78.39 103.58 82.01 103.58C84.14 103.58 85.27 104.61 85.43 105.97C85.76 108.86 82.33 110.11 78.88 110.11M78.88 108.84C79.48 108.82 83.53 108.53 83.26 106.19C83.2 105.69 82.91 105.01 81.87 105.01C80.01 105.01 79.04 106.9 78.88 108.84Z" fill="#0A6D80"/>
<path fill-rule="evenodd" clip-rule="evenodd" d="M90.53 103.9H94.23L93.34 105.39H90.37C89.73 111.99 89.75 112.14 89.76 112.27C89.84 112.95 90.3 113.21 90.93 113.21C91.82 113.21 92.95 112.53 93.64 111.98L93.86 113.84C92.76 114.58 91.64 114.96 90.53 114.96C89.2 114.96 87.92 114.28 87.72 112.59C87.68 112.3 87.7 111.98 88.34 105.38H86.89L87.06 103.89H88.51C88.56 103.23 88.65 102.58 88.69 101.92L90.98 101.68L90.53 103.89V103.9Z" fill="#0A6D80"/>
<path fill-rule="evenodd" clip-rule="evenodd" d="M98.97 103.9H102.67L101.78 105.39H98.81C98.17 111.99 98.19 112.14 98.2 112.27C98.28 112.95 98.75 113.21 99.37 113.21C100.26 113.21 101.39 112.53 102.08 111.98L102.3 113.84C101.2 114.58 100.08 114.96 98.97 114.96C97.64 114.96 96.35 114.28 96.16 112.59C96.13 112.3 96.14 111.98 96.78 105.38H95.33L95.5 103.89H96.95C97 103.23 97.09 102.58 97.13 101.92L99.42 101.68L98.97 103.89V103.9Z" fill="#0A6D80"/>
<path fill-rule="evenodd" clip-rule="evenodd" d="M105.48 110.1L105.5 110.32C105.68 111.9 106.64 113.28 108.65 113.28C110.66 113.28 112.08 111.61 112.08 111.61L112.3 113.52C112.3 113.52 111.23 114.97 108.33 114.97C105.43 114.97 103.66 112.87 103.39 110.46C102.98 106.89 104.99 103.58 108.61 103.58C110.74 103.58 111.87 104.61 112.03 105.97C112.36 108.86 108.93 110.11 105.48 110.11M105.48 108.84C106.08 108.82 110.13 108.53 109.86 106.19C109.8 105.69 109.51 105.01 108.47 105.01C106.61 105.01 105.64 106.9 105.48 108.84Z" fill="#0A6D80"/>
<path fill-rule="evenodd" clip-rule="evenodd" d="M121.25 105.76C121.25 105.76 120.33 105.5 119.84 105.5C118.2 105.5 116.65 108.41 116.49 109.99L116.19 113.04L116.26 114.68H113.99L114.86 105.91L114.48 104.09L116.82 103.65L116.65 106.37C117.01 105.73 118.11 103.57 120.27 103.57C121.05 103.57 122.03 103.96 122.03 103.96L121.25 105.76Z" fill="#0A6D80"/>
<path fill-rule="evenodd" clip-rule="evenodd" d="M122.14 114.96C121.32 114.96 120.57 114.35 120.48 113.58C120.4 112.86 121 112.24 121.83 112.24C122.66 112.24 123.4 112.85 123.48 113.58C123.57 114.35 122.96 114.96 122.14 114.96Z" fill="#0A6D80"/>
<path fill-rule="evenodd" clip-rule="evenodd" d="M135.27 106.07L134.62 104.62L133.78 113.03L133.87 114.68H131.65L132.87 102.27L132.74 100.26H134.17L140.24 109.59L147.41 100.26H149.05L147.79 113.03L147.89 114.68H145.47L146.47 104.53L145.47 106.07L139.97 113.05L135.27 106.07Z" fill="#0A6D80"/>
<path fill-rule="evenodd" clip-rule="evenodd" d="M155.28 114.96C152.16 114.96 151.07 112.38 150.88 110.73C150.4 106.59 152.42 103.57 156.46 103.57C158.59 103.57 160.51 105.15 160.82 107.84C161.25 111.57 159.47 114.96 155.29 114.96M158.73 108.15C158.54 106.46 157.45 105.02 156.02 105.02C153.92 105.02 152.68 107.93 152.96 110.34C153.17 112.14 154.03 113.5 155.6 113.5C157.17 113.5 159.14 111.7 158.73 108.15Z" fill="#0A6D80"/>
<path fill-rule="evenodd" clip-rule="evenodd" d="M169.91 105.76C169.91 105.76 168.99 105.5 168.5 105.5C166.86 105.5 165.31 108.41 165.15 109.99L164.85 113.04L164.92 114.68H162.65L163.52 105.91L163.14 104.09L165.48 103.65L165.31 106.37C165.67 105.73 166.77 103.57 168.92 103.57C169.69 103.57 170.68 103.96 170.68 103.96L169.9 105.76H169.91Z" fill="#0A6D80"/>
<path fill-rule="evenodd" clip-rule="evenodd" d="M172.82 110.1L172.85 110.32C173.03 111.9 173.99 113.28 175.99 113.28C177.99 113.28 179.42 111.61 179.42 111.61L179.64 113.52C179.64 113.52 178.57 114.97 175.68 114.97C172.79 114.97 171.01 112.87 170.74 110.46C170.33 106.89 172.34 103.58 175.96 103.58C178.09 103.58 179.22 104.61 179.38 105.97C179.71 108.86 176.28 110.11 172.83 110.11M172.83 108.84C173.43 108.82 177.48 108.53 177.21 106.19C177.15 105.69 176.86 105.01 175.82 105.01C173.96 105.01 172.99 106.9 172.83 108.84Z" fill="#0A6D80"/>
<path fill-rule="evenodd" clip-rule="evenodd" d="M193.74 99.99C198.06 99.99 199.79 103.43 200.04 105.6C200.67 111.03 197.64 114.95 192.83 114.95C189.18 114.95 186.97 112.34 186.63 109.34C186.06 104.41 188.57 99.98 193.74 99.98M188.84 109.07C189.13 111.57 190.79 113.39 192.96 113.39C196.27 113.39 198.22 109.36 197.84 106.01C197.55 103.53 196.02 101.59 193.68 101.59C191.34 101.59 188.28 104.17 188.84 109.08" fill="#0A6D80"/>
<path fill-rule="evenodd" clip-rule="evenodd" d="M204.44 114.92C204.3 117.9 202.75 119.96 200.05 119.98L199.32 118.47C201.21 118.47 202.29 117.2 202.41 114.92L202.88 105.39H201.36L201.45 103.9H202.95L203.03 102.3C203.19 99.1 204.97 98.16 206.83 98.16C207.75 98.16 208.72 98.44 209.55 98.9L208.64 100.41C208.11 100.04 207.54 99.88 206.96 99.88C206.02 99.88 205.15 100.56 205.09 101.9L204.98 103.89H208.36L207.54 105.38H204.91L204.44 114.91V114.92Z" fill="#0A6D80"/>
<path fill-rule="evenodd" clip-rule="evenodd" d="M212.59 103.9H216.29L215.4 105.39H212.43C211.79 111.99 211.81 112.14 211.82 112.27C211.9 112.95 212.36 113.21 212.99 113.21C213.89 113.21 215.02 112.53 215.7 111.98L215.91 113.84C214.81 114.58 213.7 114.96 212.58 114.96C211.25 114.96 209.96 114.28 209.77 112.59C209.74 112.3 209.75 111.98 210.39 105.38H208.94L209.11 103.89H210.56C210.61 103.23 210.7 102.58 210.74 101.92L213.03 101.68L212.59 103.89V103.9Z" fill="#0A6D80"/>
<path fill-rule="evenodd" clip-rule="evenodd" d="M219.1 110.1L219.12 110.32C219.3 111.9 220.26 113.28 222.27 113.28C224.28 113.28 225.7 111.61 225.7 111.61L225.92 113.52C225.92 113.52 224.86 114.97 221.95 114.97C219.04 114.97 217.29 112.87 217.01 110.46C216.6 106.89 218.61 103.58 222.23 103.58C224.36 103.58 225.49 104.61 225.65 105.97C225.98 108.86 222.55 110.11 219.09 110.11M219.09 108.84C219.69 108.82 223.74 108.53 223.47 106.19C223.41 105.69 223.11 105.01 222.08 105.01C220.22 105.01 219.25 106.9 219.09 108.84Z" fill="#0A6D80"/>
<path fill-rule="evenodd" clip-rule="evenodd" d="M234.51 114.68L235.16 107.56C235.23 106.9 235.34 105.39 234.11 105.39C232.44 105.39 230.31 107.43 230.31 107.43L229.77 113.04L229.82 114.68H227.6L228.47 105.92L228.09 104.13L230.43 103.67L230.31 105.79C230.31 105.79 232.5 103.6 234.69 103.6C236.88 103.6 237.4 105.11 237.29 106.84L236.68 113.08L236.74 114.68H234.49H234.51Z" fill="#0A6D80"/>
<path fill-rule="evenodd" clip-rule="evenodd" d="M241.08 114.96C240.26 114.96 239.51 114.35 239.42 113.58C239.34 112.86 239.94 112.24 240.76 112.24C241.58 112.24 242.33 112.85 242.41 113.58C242.5 114.35 241.89 114.96 241.07 114.96" fill="#0A6D80"/>
<path d="M58.76 80.07C55.09 74.76 51.25 68.53 42.9 70.82C42.75 70.86 42.72 71.06 42.74 71.21C42.76 71.36 42.86 71.51 43.01 71.58C43.44 71.79 43.9 72.14 44.37 72.55C49.13 76.72 56.19 89.16 56.97 90.22C57.76 91.3 58.98 92.43 60.29 91.68C61.72 90.87 62.23 88.9 62.96 87.52C65.74 82.29 68.96 77.33 72.6 72.7C84.98 56.96 96.9 48.77 109.07 43.4C109.79 43.08 110.49 42.73 111.22 42.45C111.74 42.25 111.97 41.58 111.76 40.97C111.55 40.36 110.97 39.98 110.43 40.13C95.13 44.1 75.78 53.53 58.76 80.06" fill="#E57630"/>
<mask id="mask0_1_580" style="mask-type:luminance" maskUnits="userSpaceOnUse" x="0" y="1" width="61" height="36">
<path d="M45.72 1.38C45.12 1.38 44.55 1.69 44.23 2.2L30.5 23.87L20.98 2.43C20.7 1.79 20.07 1.38 19.37 1.38H5.34C4.61 1.38 4.01 1.93 3.94 2.65L0.93 34.39C0.88 34.88 1.05 35.37 1.38 35.74C1.71 36.11 2.19 36.32 2.68 36.32H9.56C10.47 36.32 11.23 35.63 11.31 34.72L13.53 11.28C13.53 11.28 13.56 11.22 13.59 11.22H13.63L24.82 35.29C25.11 35.91 25.73 36.31 26.42 36.31H32.35C32.95 36.31 33.5 36.01 33.83 35.51L49.71 11.24C49.71 11.24 49.74 11.21 49.76 11.21H49.82L47.62 34.37C47.57 34.86 47.74 35.35 48.07 35.72C48.4 36.09 48.88 36.3 49.37 36.3H56.25C57.16 36.3 57.92 35.61 58.01 34.7L60.99 3.29C61.04 2.8 60.87 2.31 60.54 1.94C60.21 1.57 59.73 1.36 59.24 1.36H45.69L45.72 1.38Z" fill="white"/>
</mask>
<g mask="url(#mask0_1_580)">
<path d="M61.06 1.38H0.880005V36.32H61.06V1.38Z" fill="url(#paint0_linear_1_580)"/>
</g>
<mask id="mask1_1_580" style="mask-type:luminance" maskUnits="userSpaceOnUse" x="60" y="11" width="35" height="26">
<path d="M69.95 28.69C70.14 26.66 71.05 25.79 74.96 25.79H79.06C84.18 25.79 84.64 26.47 84.47 28.3C84.32 29.94 83.65 30.91 77.27 30.91H74.62C71 30.91 69.81 30.28 69.96 28.69M74.65 11.32C67.53 11.32 64.08 12.24 63.05 17.44C62.97 17.85 63.07 18.27 63.34 18.59C63.6 18.91 63.99 19.1 64.41 19.1H71.19C71.52 19.1 71.82 18.88 71.91 18.56C72.27 17.31 73.16 17.12 75.56 17.12H81.01C84.63 17.12 85.27 17.99 85.04 20.4L84.83 22.57C83.22 20.74 80.43 20.59 75.37 20.59C66.39 20.59 61.73 20.98 61.09 27.69L60.9 29.72C60.35 35.51 63.85 36.76 69.5 36.72H75.82C80.45 36.72 81.47 36.19 84.28 33.54L84.16 34.79C84.12 35.19 84.25 35.58 84.52 35.87C84.79 36.16 85.17 36.33 85.56 36.33H91.51C92.24 36.33 92.85 35.78 92.91 35.05L94.32 20.16C94.87 14.37 91.78 11.33 85.41 11.33H74.65V11.32Z" fill="white"/>
</mask>
<g mask="url(#mask1_1_580)">
<path d="M94.86 11.32H60.33V36.75H94.86V11.32Z" fill="url(#paint1_linear_1_580)"/>
</g>
<mask id="mask2_1_580" style="mask-type:luminance" maskUnits="userSpaceOnUse" x="95" y="11" width="35" height="26">
<path d="M108.76 11.32C102.39 11.32 97.38 12.24 96.8 18.37C96.16 25.13 98.54 27.01 107.17 27.06H115.86C119.14 27.06 119.81 27.64 119.67 29.09C119.53 30.59 118.39 30.93 113.99 30.93H110.71C106.33 30.93 105.32 30.29 105.18 29.3C105.13 28.93 104.81 28.66 104.44 28.66H96.96C96.58 28.66 96.23 28.81 95.96 29.07C95.7 29.34 95.55 29.69 95.55 30.07C95.57 35.05 98.69 36.71 106.54 36.71H115.32C125.89 36.71 128.66 35.02 129.27 28.51C129.69 24.12 129.22 20.4 118.12 20.4H111.7C106.87 20.4 106.19 20.01 106.29 18.95C106.45 17.26 107.48 17.11 112.83 17.11C117.75 17.11 118.97 17.3 119.43 18.35C119.55 18.62 119.82 18.8 120.11 18.8H127.48C127.86 18.8 128.22 18.65 128.48 18.39C128.74 18.12 128.89 17.76 128.89 17.39C128.87 12.74 126.27 11.33 115.21 11.33H108.75L108.76 11.32Z" fill="white"/>
</mask>
<g mask="url(#mask2_1_580)">
<path d="M129.7 11.32H95.56V36.7H129.7V11.32Z" fill="url(#paint2_linear_1_580)"/>
</g>
<mask id="mask3_1_580" style="mask-type:luminance" maskUnits="userSpaceOnUse" x="130" y="11" width="35" height="26">
<path d="M144.04 11.32C137.67 11.32 132.66 12.24 132.08 18.37C131.44 25.13 133.82 27.01 142.45 27.06H151.14C154.42 27.06 155.09 27.64 154.95 29.09C154.81 30.59 153.67 30.93 149.28 30.93H146C141.62 30.93 140.61 30.29 140.47 29.3C140.42 28.93 140.1 28.66 139.73 28.66H132.25C131.88 28.66 131.52 28.81 131.25 29.07C130.99 29.34 130.84 29.69 130.84 30.07C130.85 35.05 133.98 36.71 141.82 36.71H150.6C161.17 36.71 163.94 35.02 164.55 28.51C164.97 24.12 164.5 20.4 153.4 20.4H146.98C142.15 20.4 141.47 20.01 141.57 18.95C141.73 17.26 142.76 17.11 148.11 17.11C153.03 17.11 154.25 17.3 154.71 18.35C154.83 18.62 155.1 18.8 155.39 18.8H162.76C163.14 18.8 163.5 18.65 163.76 18.39C164.02 18.12 164.17 17.76 164.17 17.39C164.15 12.74 161.55 11.33 150.49 11.33H144.02L144.04 11.32Z" fill="white"/>
</mask>
<g mask="url(#mask3_1_580)">
<path d="M164.98 11.32H130.84V36.7H164.98V11.32Z" fill="url(#paint3_linear_1_580)"/>
</g>
<mask id="mask4_1_580" style="mask-type:luminance" maskUnits="userSpaceOnUse" x="165" y="11" width="34" height="26">
<path d="M174.53 28.69C174.72 26.66 175.63 25.79 179.53 25.79H183.63C188.75 25.79 189.21 26.47 189.04 28.3C188.89 29.94 188.22 30.91 181.84 30.91H179.19C175.57 30.91 174.37 30.28 174.53 28.69ZM179.22 11.32C172.12 11.32 168.67 12.24 167.63 17.4C167.55 17.81 167.65 18.25 167.92 18.57C168.19 18.9 168.59 19.09 169.01 19.09H175.76C176.09 19.09 176.39 18.87 176.48 18.55C176.84 17.3 177.73 17.11 180.13 17.11H185.58C189.2 17.11 189.84 17.98 189.61 20.39L189.4 22.56C187.79 20.73 185 20.58 179.94 20.58C170.96 20.58 166.29 20.97 165.66 27.68L165.47 29.71C164.92 35.5 168.42 36.75 174.07 36.71H180.39C185.02 36.71 186.04 36.18 188.85 33.53L188.73 34.78C188.69 35.18 188.82 35.57 189.09 35.86C189.36 36.15 189.74 36.32 190.13 36.32H196.08C196.81 36.32 197.41 35.77 197.48 35.04L198.89 20.15C199.44 14.36 196.35 11.32 189.98 11.32H179.22Z" fill="white"/>
</mask>
<g mask="url(#mask4_1_580)">
<path d="M199.44 11.32H164.91V36.75H199.44V11.32Z" fill="url(#paint4_linear_1_580)"/>
</g>
<mask id="mask5_1_580" style="mask-type:luminance" maskUnits="userSpaceOnUse" x="199" y="11" width="37" height="35">
<path d="M210.01 23C210.37 19.24 211.55 17.98 216.13 17.98H220.67C225.26 17.98 226.2 19.24 225.84 23C225.49 26.72 224.31 27.92 219.73 27.92H215.19C210.61 27.92 209.66 26.71 210.01 23ZM213.43 11.32C206.05 11.32 201.95 13.35 201.22 20.97L200.9 24.35C200.27 31.01 202.68 34.58 211.66 34.58H216.54C221.46 34.58 223.08 33.85 225.08 32.02L224.93 33.66C224.54 37.81 222.39 39.98 218.34 39.98H211.63C210.63 39.98 209.78 39.49 209.58 38.66C209.5 38.33 209.2 38.09 208.86 38.09H201.34C200.96 38.09 200.6 38.24 200.34 38.51C200.08 38.78 199.93 39.15 199.94 39.52C200.06 44.5 203.77 45.75 209.02 45.75H219.25C230.88 45.75 233 40.73 233.48 35.62L235.56 13.22C235.6 12.83 235.47 12.44 235.2 12.15C234.94 11.86 234.56 11.69 234.16 11.69H228.29C227.57 11.69 226.96 12.24 226.9 12.96L226.7 15.07H226.6C224.59 11.89 223.53 11.31 218.85 11.31H213.45L213.43 11.32Z" fill="white"/>
</mask>
<g mask="url(#mask5_1_580)">
<path d="M235.59 11.32H199.92V45.78H235.59V11.32Z" fill="url(#paint5_linear_1_580)"/>
</g>
<mask id="mask6_1_580" style="mask-type:luminance" maskUnits="userSpaceOnUse" x="236" y="11" width="33" height="26">
<path d="M253.52 17.11C258.61 17.11 260.06 17.58 259.98 20.09C259.98 20.36 259.74 20.58 259.47 20.58H246.44C246.72 17.64 247.49 17.11 253.52 17.11ZM249.44 11.32C242.68 11.32 237.86 13.35 236.97 22.66L236.75 25.02C235.75 35.54 242.11 36.7 248.24 36.7H255.19C261.9 36.7 267.53 35.35 268.11 29.17C268.14 28.9 268.05 28.63 267.86 28.43C267.68 28.23 267.42 28.11 267.14 28.11H260C259.73 28.11 259.5 28.3 259.46 28.57C259.25 29.83 258.47 30.91 253.99 30.91H251.14C247.28 30.91 245.52 30.19 245.76 27.58L245.9 26.09H267.11C267.83 26.09 268.44 25.54 268.51 24.82L268.78 21.94C269.59 13.4 265.73 11.32 255.89 11.32H249.42H249.44Z" fill="white"/>
</mask>
<g mask="url(#mask6_1_580)">
<path d="M269.61 11.32H235.75V36.7H269.61V11.32Z" fill="url(#paint6_linear_1_580)"/>
</g>
<mask id="mask7_1_580" style="mask-type:luminance" maskUnits="userSpaceOnUse" x="64" y="2" width="204" height="3">
<path d="M65.88 2.05C65.23 2.05 64.71 2.57 64.71 3.22C64.71 3.87 65.24 4.39 65.88 4.39H265.91C266.56 4.39 267.08 3.87 267.08 3.22C267.08 2.57 266.56 2.05 265.91 2.05H65.88Z" fill="white"/>
</mask>
<g mask="url(#mask7_1_580)">
<path d="M267.08 2.05H64.71V4.39H267.08V2.05Z" fill="url(#paint7_linear_1_580)"/>
</g>
<mask id="mask8_1_580" style="mask-type:luminance" maskUnits="userSpaceOnUse" x="19" y="45" width="42" height="36">
<path d="M23.83 45.52C22.96 45.52 22.23 46.18 22.15 47.05L19.16 78.61C19.12 79.08 19.27 79.56 19.59 79.91C19.91 80.26 20.36 80.46 20.84 80.46H46.77C43.42 75.79 40.89 72.97 39.3 72.06H30.5L31.03 66.46H55.56C56.43 66.46 57.16 65.8 57.24 64.93L57.61 61.06C57.65 60.59 57.5 60.12 57.18 59.77C56.86 59.42 56.41 59.22 55.93 59.22H31.73L32.26 53.62H58.23C59.1 53.62 59.83 52.96 59.91 52.09L60.36 47.35C60.4 46.88 60.25 46.41 59.93 46.06C59.61 45.71 59.16 45.51 58.68 45.51H23.83V45.52Z" fill="white"/>
</mask>
<g mask="url(#mask8_1_580)">
<path d="M60.38 45.52H19.11V80.46H60.38V45.52Z" fill="url(#paint8_linear_1_580)"/>
</g>
<mask id="mask9_1_580" style="mask-type:luminance" maskUnits="userSpaceOnUse" x="18" y="87" width="35" height="3">
<path d="M19.42 87.32C18.77 87.32 18.25 87.85 18.25 88.49C18.25 89.13 18.77 89.66 19.42 89.66H52.94C52.42 88.85 51.92 88.07 51.43 87.32H19.42Z" fill="white"/>
</mask>
<g mask="url(#mask9_1_580)">
<path d="M52.94 87.32H18.25V89.66H52.94V87.32Z" fill="url(#paint9_linear_1_580)"/>
</g>
<mask id="mask10_1_580" style="mask-type:luminance" maskUnits="userSpaceOnUse" x="124" y="55" width="33" height="26">
<path d="M141.53 61.26C146.94 61.26 148.24 61.79 147.96 64.73H134.45C134.73 61.79 135.5 61.26 141.53 61.26ZM137.45 55.47C130.69 55.47 125.87 57.5 124.99 66.81L124.76 69.17C123.76 79.69 130.12 80.85 136.25 80.85H143.2C149.91 80.85 155.54 79.5 156.12 73.32C156.15 73.05 156.06 72.78 155.87 72.58C155.69 72.38 155.43 72.26 155.15 72.26H148.36C147.92 72.26 147.53 72.56 147.42 72.99C147.13 74.13 146.16 75.06 142.01 75.06H139.16C135.3 75.06 133.53 74.34 133.78 71.73L133.92 70.24H156.41L156.8 66.09C157.61 57.55 153.75 55.47 143.91 55.47H137.44H137.45Z" fill="white"/>
</mask>
<g mask="url(#mask10_1_580)">
<path d="M157.62 55.46H123.76V80.84H157.62V55.46Z" fill="url(#paint10_linear_1_580)"/>
</g>
<mask id="mask11_1_580" style="mask-type:luminance" maskUnits="userSpaceOnUse" x="157" y="55" width="30" height="26">
<path d="M168.43 60.53H168.33L168.63 57.4C168.67 57 168.54 56.61 168.27 56.31C168 56.02 167.62 55.85 167.22 55.85H161.38C160.65 55.85 160.04 56.41 159.97 57.13L157.91 78.91C157.87 79.31 158 79.7 158.27 80C158.54 80.3 158.92 80.46 159.32 80.46H165.74C166.47 80.46 167.08 79.91 167.15 79.18L168.32 66.85C168.6 63.91 170.93 62.7 174.12 62.7C177.31 62.7 178.15 63.75 178.19 65.96C178.2 66.72 178.82 67.34 179.59 67.34H184.92C185.63 67.34 186.22 66.83 186.32 66.13C186.37 65.79 186.41 65.47 186.44 65.17C187.09 58.36 184.71 55.47 177.95 55.47C173.75 55.47 169.88 56.63 168.45 60.54" fill="white"/>
</mask>
<g mask="url(#mask11_1_580)">
<path d="M187.07 55.47H157.87V80.47H187.07V55.47Z" fill="url(#paint11_linear_1_580)"/>
</g>
<mask id="mask12_1_580" style="mask-type:luminance" maskUnits="userSpaceOnUse" x="187" y="51" width="29" height="30">
<path d="M193.81 51.16C193.09 51.16 192.49 51.7 192.42 52.41L192.06 55.84H189.53C188.81 55.84 188.2 56.39 188.14 57.11L187.78 60.97C187.74 61.36 187.87 61.75 188.14 62.05C188.41 62.34 188.78 62.51 189.18 62.51H191.45L190.53 72.26C189.88 79.06 194.64 80.85 200.33 80.85H204C211.38 80.85 214.81 77.28 215.26 72.6L215.4 71.14C215.44 70.75 215.31 70.36 215.04 70.07C214.77 69.78 214.4 69.61 214 69.61H208.71C207.99 69.61 207.38 70.16 207.32 70.88L207.28 71.25C207.07 73.52 206.18 74.19 203.19 74.19C200.97 74.19 199.66 73.8 199.83 71.97L200.73 62.51H213.84C214.56 62.51 215.17 61.96 215.23 61.24L215.59 57.38C215.63 56.99 215.5 56.6 215.23 56.3C214.97 56.01 214.59 55.84 214.19 55.84H201.35L201.68 52.7C201.72 52.31 201.6 51.91 201.33 51.62C201.07 51.32 200.69 51.16 200.29 51.16H193.84H193.81Z" fill="white"/>
</mask>
<g mask="url(#mask12_1_580)">
<path d="M215.6 51.16H187.73V80.84H215.6V51.16Z" fill="url(#paint12_linear_1_580)"/>
</g>
<mask id="mask13_1_580" style="mask-type:luminance" maskUnits="userSpaceOnUse" x="216" y="55" width="35" height="26">
<path d="M229.74 55.47C223.37 55.47 218.36 56.39 217.78 62.51C217.14 69.27 219.52 71.15 228.15 71.2H236.84C240.12 71.2 240.79 71.78 240.65 73.23C240.51 74.72 239.36 75.06 234.98 75.06H231.7C227.28 75.06 226.3 74.41 226.17 73.41C226.13 73.06 225.83 72.8 225.47 72.8H217.95C217.58 72.8 217.22 72.95 216.96 73.21C216.7 73.47 216.55 73.83 216.55 74.2C216.55 79.19 219.69 80.86 227.53 80.86H236.31C246.88 80.86 249.64 79.17 250.26 72.66C250.68 68.27 250.21 64.55 239.11 64.55H232.69C227.86 64.55 227.18 64.16 227.28 63.1C227.44 61.41 228.47 61.26 233.82 61.26C238.77 61.26 239.98 61.45 240.43 62.52C240.54 62.78 240.79 62.95 241.08 62.95H248.51C248.88 62.95 249.23 62.8 249.49 62.54C249.75 62.28 249.9 61.93 249.89 61.56C249.88 56.88 247.29 55.47 236.21 55.47H229.74Z" fill="white"/>
</mask>
<g mask="url(#mask13_1_580)">
<path d="M250.67 55.47H216.53V80.85H250.67V55.47Z" fill="url(#paint13_linear_1_580)"/>
</g>
<mask id="mask14_1_580" style="mask-type:luminance" maskUnits="userSpaceOnUse" x="58" y="55" width="15" height="11">
<path d="M59.47 55.85C59.22 55.85 58.99 55.99 58.87 56.22C58.75 56.45 58.78 56.72 58.93 56.92L65.46 65.84C67.62 63.45 69.85 61.19 72.14 59.06L70.86 56.98C70.43 56.28 69.66 55.85 68.84 55.85H59.47Z" fill="white"/>
</mask>
<g mask="url(#mask14_1_580)">
<path d="M72.14 55.85H58.76V65.84H72.14V55.85Z" fill="url(#paint14_linear_1_580)"/>
</g>
<mask id="mask15_1_580" style="mask-type:luminance" maskUnits="userSpaceOnUse" x="71" y="66" width="16" height="15">
<path d="M72.6 72.71C72.22 73.2 71.86 73.7 71.48 74.2L74.42 79.28C74.84 80.01 75.63 80.46 76.48 80.46H85.87C86.2 80.46 86.5 80.28 86.65 79.98C86.8 79.69 86.77 79.33 86.58 79.07L77.68 66.65C75.99 68.54 74.3 70.55 72.6 72.71Z" fill="white"/>
</mask>
<g mask="url(#mask15_1_580)">
<path d="M86.79 66.65H71.48V80.47H86.79V66.65Z" fill="url(#paint15_linear_1_580)"/>
</g>
<mask id="mask16_1_580" style="mask-type:luminance" maskUnits="userSpaceOnUse" x="61" y="55" width="188" height="35">
<path d="M98.72 69.36L98.95 66.95C99.3 63.23 101.31 62.41 104.98 62.41H109.86C114.3 62.41 114.59 63.95 114.33 66.7L114.06 69.59C113.8 72.34 113.22 73.89 108.78 73.89H103.91C100.24 73.89 98.39 73.07 98.74 69.35M108.55 55.45C103.15 55.45 100.84 57.33 99.48 59.5H99.38L99.58 57.37C99.62 56.98 99.49 56.59 99.22 56.29C98.95 56 98.58 55.83 98.18 55.83H92.03C91.31 55.83 90.7 56.38 90.63 57.1L87.77 87.3H63.09C63.05 87.37 63.01 87.44 62.97 87.51C62.63 88.15 62.33 88.92 61.97 89.65H246.91C247.56 89.65 248.08 89.13 248.08 88.48C248.08 87.83 247.56 87.31 246.91 87.31H97.02L98.07 76.2H98.17C99.87 80.11 101.64 80.83 106.9 80.83H108.78C120.51 80.83 122.35 76.63 122.95 70.36L123.37 65.92C123.97 59.65 122.92 55.45 111.19 55.45H108.54H108.55Z" fill="white"/>
</mask>
<g mask="url(#mask16_1_580)">
<path d="M248.07 55.47H61.96V89.67H248.07V55.47Z" fill="url(#paint16_linear_1_580)"/>
</g>
<mask id="mask17_1_580" style="mask-type:luminance" maskUnits="userSpaceOnUse" x="254" y="55" width="7" height="8">
<path d="M256.61 57.69H256.9C257.3 57.69 257.56 57.71 257.66 57.74C257.76 57.77 257.84 57.83 257.9 57.9C257.96 57.98 257.98 58.06 257.98 58.16C257.98 58.26 257.95 58.35 257.89 58.43C257.83 58.51 257.76 58.57 257.66 58.59C257.56 58.62 257.31 58.64 256.9 58.64H256.61V57.68V57.69ZM255.9 57.14V60.64H256.61V59.21H256.79C256.99 59.21 257.15 59.26 257.28 59.36C257.41 59.46 257.57 59.7 257.77 60.08L258.06 60.65H258.94L258.53 59.94C258.38 59.69 258.3 59.55 258.27 59.51C258.17 59.38 258.09 59.29 258.03 59.24C257.97 59.19 257.89 59.15 257.79 59.11C258.09 59.07 258.32 58.96 258.48 58.78C258.65 58.6 258.73 58.39 258.73 58.13C258.73 57.95 258.69 57.78 258.6 57.63C258.51 57.48 258.4 57.37 258.27 57.29C258.14 57.22 257.96 57.17 257.72 57.15C257.64 57.15 257.27 57.14 256.6 57.14H255.89H255.9ZM256.08 61.17C255.66 60.94 255.34 60.61 255.1 60.19C254.87 59.77 254.75 59.33 254.75 58.87C254.75 58.41 254.87 57.96 255.11 57.54C255.35 57.12 255.68 56.79 256.09 56.56C256.51 56.33 256.94 56.22 257.39 56.22C257.84 56.22 258.28 56.33 258.69 56.56C259.11 56.79 259.44 57.11 259.68 57.54C259.92 57.96 260.04 58.41 260.04 58.87C260.04 59.33 259.92 59.77 259.69 60.19C259.46 60.61 259.13 60.93 258.71 61.17C258.29 61.41 257.85 61.52 257.39 61.52C256.93 61.52 256.49 61.4 256.07 61.17M255.76 56C255.24 56.28 254.83 56.69 254.54 57.21C254.24 57.74 254.09 58.29 254.09 58.87C254.09 59.45 254.24 59.99 254.53 60.51C254.82 61.03 255.23 61.44 255.75 61.73C256.27 62.02 256.82 62.17 257.39 62.17C257.96 62.17 258.51 62.02 259.03 61.73C259.55 61.44 259.96 61.03 260.25 60.51C260.54 59.99 260.69 59.44 260.69 58.87C260.69 58.3 260.54 57.74 260.24 57.21C259.94 56.68 259.54 56.28 259.02 56C258.5 55.72 257.96 55.58 257.39 55.58C256.82 55.58 256.28 55.72 255.77 56" fill="white"/>
</mask>
<g mask="url(#mask17_1_580)">
<path d="M260.68 55.57H254.09V62.16H260.68V55.57Z" fill="url(#paint17_linear_1_580)"/>
</g>
<defs>
<linearGradient id="paint0_linear_1_580" x1="30.0102" y1="36.6952" x2="30.0102" y2="1.7552" gradientUnits="userSpaceOnUse">
<stop stop-color="#0A6D80"/>
<stop offset="1" stop-color="#0A6D80"/>
</linearGradient>
<linearGradient id="paint1_linear_1_580" x1="80.2526" y1="36.108" x2="80.2526" y2="10.728" gradientUnits="userSpaceOnUse">
<stop stop-color="#0A6D80"/>
<stop offset="1" stop-color="#0A6D80"/>
</linearGradient>
<linearGradient id="paint2_linear_1_580" x1="114.576" y1="36.318" x2="114.576" y2="10.938" gradientUnits="userSpaceOnUse">
<stop stop-color="#0A6D80"/>
<stop offset="1" stop-color="#0A6D80"/>
</linearGradient>
<linearGradient id="paint3_linear_1_580" x1="149.846" y1="36.318" x2="149.846" y2="10.938" gradientUnits="userSpaceOnUse">
<stop stop-color="#0A6D80"/>
<stop offset="1" stop-color="#0A6D80"/>
</linearGradient>
<linearGradient id="paint4_linear_1_580" x1="184.833" y1="36.108" x2="184.833" y2="10.728" gradientUnits="userSpaceOnUse">
<stop stop-color="#0A6D80"/>
<stop offset="1" stop-color="#0A6D80"/>
</linearGradient>
<linearGradient id="paint5_linear_1_580" x1="215.542" y1="46.4668" x2="215.542" y2="12.0068" gradientUnits="userSpaceOnUse">
<stop stop-color="#0A6D80"/>
<stop offset="1" stop-color="#0A6D80"/>
</linearGradient>
<linearGradient id="paint6_linear_1_580" x1="254.513" y1="36.348" x2="254.513" y2="10.968" gradientUnits="userSpaceOnUse">
<stop stop-color="#0A6D80"/>
<stop offset="1" stop-color="#0A6D80"/>
</linearGradient>
<linearGradient id="paint7_linear_1_580" x1="167.484" y1="3.9854" x2="167.484" y2="1.6454" gradientUnits="userSpaceOnUse">
<stop stop-color="#0A6D80"/>
<stop offset="1" stop-color="#0A6D80"/>
</linearGradient>
<linearGradient id="paint8_linear_1_580" x1="39.0202" y1="80.7752" x2="39.0202" y2="45.8352" gradientUnits="userSpaceOnUse">
<stop stop-color="#707479"/>
<stop offset="1" stop-color="#707479"/>
</linearGradient>
<linearGradient id="paint9_linear_1_580" x1="37.1838" y1="89.2554" x2="37.1838" y2="86.9154" gradientUnits="userSpaceOnUse">
<stop stop-color="#707479"/>
<stop offset="1" stop-color="#707479"/>
</linearGradient>
<linearGradient id="paint10_linear_1_580" x1="142.583" y1="80.478" x2="142.583" y2="55.098" gradientUnits="userSpaceOnUse">
<stop stop-color="#707479"/>
<stop offset="1" stop-color="#707479"/>
</linearGradient>
<linearGradient id="paint11_linear_1_580" x1="170.62" y1="81.04" x2="170.62" y2="56.04" gradientUnits="userSpaceOnUse">
<stop stop-color="#707479"/>
<stop offset="1" stop-color="#707479"/>
</linearGradient>
<linearGradient id="paint12_linear_1_580" x1="204.624" y1="80.1812" x2="204.624" y2="50.5012" gradientUnits="userSpaceOnUse">
<stop stop-color="#707479"/>
<stop offset="1" stop-color="#707479"/>
</linearGradient>
<linearGradient id="paint13_linear_1_580" x1="235.466" y1="80.488" x2="235.466" y2="55.108" gradientUnits="userSpaceOnUse">
<stop stop-color="#707479"/>
<stop offset="1" stop-color="#707479"/>
</linearGradient>
<linearGradient id="paint14_linear_1_580" x1="67.3608" y1="65.3579" x2="67.3608" y2="55.3679" gradientUnits="userSpaceOnUse">
<stop stop-color="#707479"/>
<stop offset="1" stop-color="#707479"/>
</linearGradient>
<linearGradient id="paint15_linear_1_580" x1="76.8856" y1="81.0812" x2="76.8856" y2="67.2612" gradientUnits="userSpaceOnUse">
<stop stop-color="#707479"/>
<stop offset="1" stop-color="#707479"/>
</linearGradient>
<linearGradient id="paint16_linear_1_580" x1="155.796" y1="89.576" x2="155.796" y2="55.376" gradientUnits="userSpaceOnUse">
<stop stop-color="#707479"/>
<stop offset="1" stop-color="#707479"/>
</linearGradient>
<linearGradient id="paint17_linear_1_580" x1="256.122" y1="62.477" x2="256.122" y2="55.887" gradientUnits="userSpaceOnUse">
<stop stop-color="#707479"/>
<stop offset="1" stop-color="#707479"/>
</linearGradient>
</defs>
</svg>
